<mxfile host="app.diagrams.net" modified="2023-09-25T23:21:58.161Z" agent="Mozilla/5.0 (Macintosh; Intel Mac OS X 10.15; rv:109.0) Gecko/20100101 Firefox/117.0" version="21.6.9" etag="l8eRIt9ET9CrD_U5H94a" type="github">
  <diagram name="Page-1" id="4F-CxtZxwAVtAaBu6MW3">
    <mxGraphModel>
      <root>
        <mxCell id="0" />
        <mxCell id="1" parent="0" />
      </root>
    </mxGraphModel>
  </diagram>
</mxfile>
